<mxfile host="app.diagrams.net" modified="2022-03-08T09:34:45.609Z" agent="5.0 (Macintosh; Intel Mac OS X 10_15_7) AppleWebKit/537.36 (KHTML, like Gecko) Chrome/98.0.4758.102 Safari/537.36 Edg/98.0.1108.62" etag="kGTlNJlhoeLOWULoS7qs" version="16.6.7" type="github">
  <diagram id="U3OZctlHihz3aJ_vZG9n" name="Page-1">
    <mxGraphModel dx="1250" dy="719" grid="0" gridSize="10" guides="1" tooltips="1" connect="1" arrows="1" fold="1" page="1" pageScale="1" pageWidth="380" pageHeight="180" math="0" shadow="0">
      <root>
        <mxCell id="0" />
        <mxCell id="1" parent="0" />
        <mxCell id="5UPiH-dydmb385tr083R-1" value="" style="group" vertex="1" connectable="0" parent="1">
          <mxGeometry x="8" y="4" width="360" height="168" as="geometry" />
        </mxCell>
        <mxCell id="5UPiH-dydmb385tr083R-2" value="" style="ellipse;whiteSpace=wrap;html=1;fillColor=#dae8fc;strokeColor=#6c8ebf;" vertex="1" parent="5UPiH-dydmb385tr083R-1">
          <mxGeometry width="360" height="168" as="geometry" />
        </mxCell>
        <mxCell id="5UPiH-dydmb385tr083R-3" value="" style="ellipse;whiteSpace=wrap;html=1;fillColor=#d5e8d4;strokeColor=#82b366;" vertex="1" parent="5UPiH-dydmb385tr083R-1">
          <mxGeometry x="15" y="18" width="253" height="132" as="geometry" />
        </mxCell>
        <mxCell id="5UPiH-dydmb385tr083R-4" value="" style="ellipse;whiteSpace=wrap;html=1;fillColor=#ffe6cc;strokeColor=#d79b00;" vertex="1" parent="5UPiH-dydmb385tr083R-1">
          <mxGeometry x="34" y="41" width="137" height="86" as="geometry" />
        </mxCell>
        <mxCell id="5UPiH-dydmb385tr083R-5" value="&lt;font style=&quot;font-size: 15px&quot;&gt;数据&lt;/font&gt;" style="text;html=1;strokeColor=none;fillColor=none;align=center;verticalAlign=middle;whiteSpace=wrap;rounded=0;" vertex="1" parent="5UPiH-dydmb385tr083R-1">
          <mxGeometry x="77" y="56" width="40" height="20" as="geometry" />
        </mxCell>
        <mxCell id="5UPiH-dydmb385tr083R-6" value="&lt;font style=&quot;font-size: 11px&quot;&gt;基本事实、符号&lt;/font&gt;" style="text;html=1;strokeColor=none;fillColor=none;align=center;verticalAlign=middle;whiteSpace=wrap;rounded=0;" vertex="1" parent="5UPiH-dydmb385tr083R-1">
          <mxGeometry x="46" y="89" width="113" height="20" as="geometry" />
        </mxCell>
        <mxCell id="5UPiH-dydmb385tr083R-7" value="&lt;font style=&quot;font-size: 15px&quot;&gt;信息&lt;/font&gt;" style="text;html=1;strokeColor=none;fillColor=none;align=center;verticalAlign=middle;whiteSpace=wrap;rounded=0;" vertex="1" parent="5UPiH-dydmb385tr083R-1">
          <mxGeometry x="117" y="21" width="40" height="20" as="geometry" />
        </mxCell>
        <mxCell id="5UPiH-dydmb385tr083R-8" value="&lt;font style=&quot;font-size: 15px&quot;&gt;知识&lt;/font&gt;" style="text;html=1;strokeColor=none;fillColor=none;align=center;verticalAlign=middle;whiteSpace=wrap;rounded=0;" vertex="1" parent="5UPiH-dydmb385tr083R-1">
          <mxGeometry x="160" width="40" height="20" as="geometry" />
        </mxCell>
        <mxCell id="5UPiH-dydmb385tr083R-9" value="&lt;font style=&quot;font-size: 11px&quot;&gt;上下文&lt;/font&gt;" style="text;html=1;strokeColor=none;fillColor=none;align=center;verticalAlign=middle;whiteSpace=wrap;rounded=0;" vertex="1" parent="5UPiH-dydmb385tr083R-1">
          <mxGeometry x="200" y="74" width="55" height="20" as="geometry" />
        </mxCell>
        <mxCell id="5UPiH-dydmb385tr083R-10" value="&lt;span style=&quot;font-size: 11px&quot;&gt;规则&lt;/span&gt;" style="text;html=1;strokeColor=none;fillColor=none;align=center;verticalAlign=middle;whiteSpace=wrap;rounded=0;" vertex="1" parent="5UPiH-dydmb385tr083R-1">
          <mxGeometry x="299.5" y="74" width="55" height="20" as="geometry" />
        </mxCell>
      </root>
    </mxGraphModel>
  </diagram>
</mxfile>
